<svg xmlns="http://www.w3.org/2000/svg" width="17.165" height="17.164" viewBox="0 0 17.165 17.164">
  <g id="link-svgrepo-com" transform="translate(-0.001 -0.011)">
    <path id="Path_5187" data-name="Path 5187" d="M138.566,1.387l-.6-.528a3.369,3.369,0,0,0-4.754.286L131.5,3.073a1.057,1.057,0,0,0,.089,1.49l.16.142a1.055,1.055,0,0,0,1.49-.09l1.709-1.928a1.045,1.045,0,0,1,1.472-.089l.6.529a1.043,1.043,0,0,1,.089,1.472l-3.738,4.217a1.041,1.041,0,0,1-1.259.234,1.141,1.141,0,0,0-1.378.257l-.029.033a1.142,1.142,0,0,0,.326,1.769,3.363,3.363,0,0,0,4.081-.751l3.738-4.216A3.373,3.373,0,0,0,138.566,1.387Z" transform="translate(-122.532 0)" fill="#fc464f"/>
    <path id="Path_5188" data-name="Path 5188" d="M8.1,100.891l-.161-.142a1.057,1.057,0,0,0-1.49.09l-1.709,1.928a1.044,1.044,0,0,1-1.471.089l-.6-.53a1.042,1.042,0,0,1-.089-1.471l3.738-4.216a1.045,1.045,0,0,1,1.24-.244,1.2,1.2,0,0,0,1.427-.282l.013-.015a1.125,1.125,0,0,0-.311-1.738,3.356,3.356,0,0,0-4.109.736L.847,99.312h0a3.372,3.372,0,0,0,.286,4.755l.6.529a3.373,3.373,0,0,0,4.755-.286l1.709-1.928A1.055,1.055,0,0,0,8.1,100.891Z" transform="translate(0 -88.267)" fill="#fc464f"/>
  </g>
</svg>
