<svg xmlns="http://www.w3.org/2000/svg" width="30" height="22.1" viewBox="0 0 30 22.1">
  <g id="email-svgrepo-com" transform="translate(0 -64.488)">
    <path id="Path_5192" data-name="Path 5192" d="M28.732,64.488H1.279a1.277,1.277,0,0,0-1.256,1.06C-.014,65.695,0,85.314,0,85.314a1.281,1.281,0,0,0,1.274,1.274H28.665A1.32,1.32,0,0,0,30,85.375V65.762A1.268,1.268,0,0,0,28.732,64.488Zm-3.969,2.548-9.788,7.007L5.187,67.036ZM2.491,84.107V68.188l11.785,8.4a1.12,1.12,0,0,0,1.4,0l11.785-8.441V84.107Z" transform="translate(0)" fill="#666"/>
  </g>
</svg>
