<svg xmlns="http://www.w3.org/2000/svg" width="11.478" height="22.723" viewBox="0 0 11.478 22.723">
  <g id="XMLID_834_" transform="translate(-76.703)">
    <path id="XMLID_835_" d="M77.069,12.1H79.56V22.356a.366.366,0,0,0,.366.366H84.15a.366.366,0,0,0,.366-.366V12.15H87.38a.367.367,0,0,0,.364-.325l.435-3.775a.366.366,0,0,0-.364-.408h-3.3V5.276c0-.713.384-1.075,1.142-1.075h2.156a.366.366,0,0,0,.366-.366V.369A.366.366,0,0,0,87.815,0H84.843c-.021,0-.068,0-.136,0a5.7,5.7,0,0,0-3.724,1.4,3.905,3.905,0,0,0-1.3,3.471V7.642H77.069a.366.366,0,0,0-.366.366v3.727A.366.366,0,0,0,77.069,12.1Z" fill="#fc464f"/>
  </g>
</svg>
