<svg xmlns="http://www.w3.org/2000/svg" width="35.017" height="35.017" viewBox="0 0 35.017 35.017">
  <g id="Group_20136" data-name="Group 20136" transform="translate(-368.649 -2716.492)">
    <ellipse id="Ellipse_11" data-name="Ellipse 11" cx="17.509" cy="17.509" rx="17.509" ry="17.509" transform="translate(368.649 2716.492)" fill="#e4405f"/>
    <path id="Path_5047" data-name="Path 5047" d="M264.75,256c-2.349,0-2.643.01-3.566.051a6.41,6.41,0,0,0-2.1.4,4.27,4.27,0,0,0-1.535,1,4.169,4.169,0,0,0-1,1.535,6.427,6.427,0,0,0-.4,2.1c-.044.923-.051,1.217-.051,3.566s.01,2.643.051,3.566a6.427,6.427,0,0,0,.4,2.1,4.27,4.27,0,0,0,1,1.535,4.214,4.214,0,0,0,1.535,1,6.43,6.43,0,0,0,2.1.4c.923.044,1.217.051,3.566.051s2.643-.01,3.566-.051a6.43,6.43,0,0,0,2.1-.4,4.271,4.271,0,0,0,1.535-1,4.214,4.214,0,0,0,1-1.535,6.43,6.43,0,0,0,.4-2.1c.044-.923.051-1.217.051-3.566s-.01-2.643-.051-3.566a6.43,6.43,0,0,0-.4-2.1,4.27,4.27,0,0,0-1-1.535,4.213,4.213,0,0,0-1.535-1,6.429,6.429,0,0,0-2.1-.4C267.394,256.01,267.1,256,264.75,256Zm0,1.558c2.309,0,2.586.01,3.5.051a4.718,4.718,0,0,1,1.606.3,2.838,2.838,0,0,1,1.643,1.643,4.742,4.742,0,0,1,.3,1.606c.041.913.051,1.186.051,3.5s-.01,2.586-.054,3.5a4.872,4.872,0,0,1-.3,1.606,2.74,2.74,0,0,1-.649,1,2.7,2.7,0,0,1-.994.646,4.792,4.792,0,0,1-1.612.3c-.919.041-1.19.051-3.505.051s-2.586-.01-3.505-.054a4.925,4.925,0,0,1-1.612-.3,2.672,2.672,0,0,1-.994-.649,2.629,2.629,0,0,1-.649-.994,4.923,4.923,0,0,1-.3-1.612c-.034-.909-.044-1.19-.044-3.492s.01-2.586.044-3.505a4.833,4.833,0,0,1,.3-1.612,2.565,2.565,0,0,1,.649-1,2.591,2.591,0,0,1,.994-.649,4.844,4.844,0,0,1,1.6-.3c.919-.034,1.19-.044,3.505-.044Zm0,2.65a4.445,4.445,0,1,0,4.445,4.445A4.446,4.446,0,0,0,264.75,260.209Zm0,7.329a2.883,2.883,0,1,1,2.883-2.883A2.884,2.884,0,0,1,264.75,267.537Zm5.659-7.5A1.038,1.038,0,1,1,269.371,259,1.038,1.038,0,0,1,270.409,260.036Z" transform="translate(121.082 2469.395)" fill="#fff"/>
  </g>
</svg>
