<svg xmlns="http://www.w3.org/2000/svg" width="27.577" height="28.855" viewBox="0 0 27.577 28.855">
  <g id="telephone-svgrepo-com" transform="translate(-0.589 0.5)">
    <path id="Path_5193" data-name="Path 5193" d="M21,27.855h0c-.093,0-.187,0-.28,0-3.545-.117-7.834-1.919-11.474-4.821-.588-.47-1.435-1.228-1.929-1.728a21.26,21.26,0,0,1-6.2-13.156C.895,4.561,2.4.673,6.25.066A5.464,5.464,0,0,1,7.091,0c3.032,0,5.725,2.581,6.265,6a7.3,7.3,0,0,1-1.513,5.859.922.922,0,0,0-.233.866,12.8,12.8,0,0,0,3.7,3.963,2.558,2.558,0,0,0,.247.151,5.843,5.843,0,0,1,4.633-2.111,7.622,7.622,0,0,1,4.436,1.487,6.576,6.576,0,0,1,2.667,7.362A6.31,6.31,0,0,1,21,27.855ZM7.091,1.861a3.5,3.5,0,0,0-.552.043C3.458,2.391,2.845,5.984,2.97,8.031a19.356,19.356,0,0,0,5.668,11.96c.444.449,1.237,1.158,1.768,1.583,2.576,2.055,6.655,4.294,10.374,4.416q.111,0,.22,0h0a4.484,4.484,0,0,0,4.522-2.988,4.67,4.67,0,0,0-1.992-5.281,5.743,5.743,0,0,0-3.34-1.13,3.97,3.97,0,0,0-3.282,1.546c-.045.061-.089.126-.128.192a1.073,1.073,0,0,1-.945.5,3.177,3.177,0,0,1-1.583-.61A14.662,14.662,0,0,1,10.01,13.68a2.7,2.7,0,0,1,.409-3.013,5.517,5.517,0,0,0,1.1-4.372C11.119,3.767,9.217,1.861,7.091,1.861Z" fill="#666" stroke="#666" stroke-width="1"/>
  </g>
</svg>
